<?xml version="1.0" standalone="no"?>
<!DOCTYPE svg PUBLIC "-//W3C//DTD SVG 20010904//EN"
 "http://www.w3.org/TR/2001/REC-SVG-20010904/DTD/svg10.dtd">
<svg version="1.0" xmlns="http://www.w3.org/2000/svg"
 width="896.000000pt" height="896.000000pt" viewBox="0 0 896.000000 896.000000"
 preserveAspectRatio="xMidYMid meet">
<metadata>
Created by potrace 1.14, written by Peter Selinger 2001-2017
</metadata>
<g transform="translate(0.000000,896.000000) scale(0.100000,-0.100000)"
fill="#000000" stroke="none">
<path d="M0 4480 l0 -3520 1921 0 c1916 0 1921 0 1916 20 -3 11 -1 20 4 20 5
0 4 11 -1 25 -6 15 -6 27 0 30 5 3 6 15 0 29 -4 12 -5 29 0 36 5 7 4 24 -1 37
-5 13 -5 23 1 23 5 0 5 12 0 30 -5 17 -6 30 -2 30 8 0 7 89 -2 97 -3 3 -1 14
4 24 7 11 7 20 0 24 -5 3 -6 15 -1 28 5 12 5 34 0 49 -4 16 -4 28 1 28 5 0 5
13 0 30 -5 17 -5 30 0 30 5 0 5 13 0 30 -5 17 -5 30 0 30 5 0 5 13 0 30 -5 17
-5 30 0 30 5 0 5 13 0 30 -5 17 -5 30 0 30 5 0 5 13 0 30 -5 17 -5 30 0 30 5
0 5 13 0 30 -5 17 -5 30 0 30 5 0 5 13 0 30 -5 17 -5 30 0 30 5 0 5 13 0 30
-5 17 -5 30 0 30 5 0 5 13 0 30 -5 17 -5 30 0 30 5 0 5 12 1 28 -4 15 -4 39 0
54 4 16 4 28 0 28 -9 0 -8 37 1 45 3 3 3 16 1 30 -5 21 -10 23 -54 22 -27 -1
-49 0 -49 3 0 3 -18 5 -40 5 -22 0 -40 -3 -40 -6 0 -4 -18 -3 -40 1 -22 4 -40
5 -40 1 0 -3 -19 -5 -42 -4 -61 3 -91 3 -108 3 -8 -1 -28 -1 -45 -1 -16 1 -38
1 -47 1 -10 0 -26 0 -35 0 -10 0 -31 0 -48 1 -67 1 -81 1 -107 0 -70 -2 -84
-3 -98 -2 -8 1 -26 1 -40 0 -14 0 -32 0 -40 0 -8 1 -26 1 -40 0 -43 -2 -69 -2
-160 1 -14 1 -32 1 -40 0 -8 0 -26 0 -40 1 -14 0 -31 0 -37 0 -7 -1 -21 -1
-30 -1 -10 0 -31 0 -48 -1 -16 0 -39 0 -50 1 -11 1 -27 1 -35 0 -8 0 -26 0
-40 1 -14 0 -32 0 -40 0 -8 -1 -24 -1 -35 -1 -11 1 -27 1 -35 1 -8 -1 -28 -1
-45 0 -67 1 -81 1 -107 0 -70 -2 -84 -3 -98 -2 -8 1 -26 1 -40 0 -14 0 -32 0
-40 0 -18 2 -58 0 -85 -3 -11 -1 -35 1 -53 5 -17 4 -34 3 -37 -1 -3 -5 -18 -5
-33 -1 -15 5 -36 5 -47 1 -11 -4 -29 -4 -40 0 -11 4 -29 4 -41 0 -11 -5 -27
-4 -34 0 -7 5 -23 5 -34 0 -12 -4 -30 -4 -41 0 -11 4 -29 4 -41 0 -11 -5 -27
-5 -34 0 -7 5 -23 5 -34 0 -12 -4 -30 -4 -41 0 -11 4 -30 4 -42 -1 -13 -5 -23
-5 -23 -1 0 4 -16 7 -35 6 -33 -2 -35 0 -36 30 -1 17 0 36 1 41 2 10 2 16 -2
103 -2 28 0 52 3 52 4 0 3 15 -1 34 -4 19 -4 39 0 46 4 7 4 27 0 46 -5 19 -4
37 1 40 5 3 7 10 3 15 -6 10 -6 49 -1 157 1 28 -1 52 -4 52 -3 0 -3 19 0 42 4
24 4 60 0 80 -3 20 -3 42 1 49 4 6 4 26 0 45 -5 19 -4 37 1 40 5 3 7 10 3 15
-6 10 -6 49 -1 157 1 28 -1 52 -4 52 -3 0 -3 19 0 43 4 23 4 59 0 79 -3 20 -3
42 1 49 4 6 4 26 0 45 -4 19 -4 36 0 39 4 3 4 21 0 40 -4 19 -4 37 0 40 5 3 5
18 0 34 -4 15 -4 34 0 41 4 6 4 26 1 44 -7 31 -5 90 4 113 2 7 0 15 -4 18 -5
3 -5 21 -1 40 4 19 4 37 0 40 -4 3 -4 21 0 40 4 19 4 37 0 40 -4 3 -4 21 0 40
4 19 4 37 0 40 -4 3 -4 21 0 40 4 19 4 37 0 40 -4 3 -4 21 0 40 4 19 4 37 0
40 -4 3 -4 21 0 40 4 19 4 37 0 40 -4 3 -4 21 0 40 4 19 4 37 0 40 -4 3 -4 21
0 40 4 19 4 37 0 40 -4 3 -4 21 0 40 4 19 4 37 0 40 -4 3 -4 21 0 40 4 19 4
37 0 40 -4 3 -4 21 0 40 4 19 4 37 0 40 -4 3 -4 21 0 40 4 19 4 37 0 40 -4 3
-4 21 0 40 4 19 4 37 0 40 -4 3 -4 21 0 40 4 20 4 38 -1 41 -5 3 -7 10 -3 15
7 12 9 148 2 155 -3 3 -2 21 2 40 4 18 4 34 0 34 -4 0 -4 18 0 40 4 22 4 42 1
45 -4 2 -4 31 -1 64 3 34 3 61 -1 61 -3 0 -3 18 1 40 4 22 5 40 1 40 -3 0 -6
18 -6 40 0 22 3 40 6 40 3 0 3 20 -1 45 -4 25 -4 48 0 50 5 3 4 21 0 40 -4 19
-4 37 0 40 5 3 5 17 1 32 -4 15 -4 46 -1 70 4 24 4 43 0 43 -4 0 -4 18 0 40 4
22 5 40 1 40 -3 0 -6 18 -6 40 0 22 3 40 6 40 3 0 3 20 -1 45 -4 25 -4 48 0
50 5 3 4 21 0 40 -4 19 -4 37 0 40 5 3 5 17 1 32 -4 15 -4 46 -1 70 4 24 4 43
0 43 -4 0 -4 18 0 40 4 22 5 40 1 40 -3 0 -6 18 -6 40 0 22 3 40 6 40 3 0 3
20 -1 45 -4 25 -4 48 0 50 5 3 4 21 0 40 -4 19 -4 37 0 40 5 3 5 17 1 32 -4
15 -4 46 -1 70 4 24 4 43 0 43 -4 0 -4 18 0 40 4 22 5 40 1 40 -3 0 -6 18 -6
40 0 22 3 40 6 40 3 0 3 20 -1 45 -4 25 -4 48 0 50 5 3 4 21 0 40 -4 20 -4 38
1 41 5 3 7 10 4 15 -8 12 -10 137 -3 145 3 3 2 21 -2 40 -4 19 -4 36 0 39 5 3
5 18 0 34 -4 15 -4 34 0 41 5 7 6 18 4 24 -8 22 -10 82 -3 114 4 17 3 34 -1
37 -4 3 -4 21 0 40 4 19 4 37 0 40 -4 3 -4 21 0 40 4 19 4 37 0 40 -4 3 -4 21
0 40 l8 35 -644 0 -644 0 0 -3520z"/>
<path d="M4482 7975 c3 -14 2 -25 -3 -25 -4 0 -4 -13 1 -30 5 -17 5 -30 0 -30
-5 0 -5 -12 -1 -28 5 -15 5 -37 0 -49 -5 -13 -4 -25 1 -28 6 -4 7 -13 1 -24
-5 -9 -6 -23 -2 -29 4 -7 4 -35 1 -62 -4 -28 -3 -50 1 -50 4 0 4 -13 -1 -30
-5 -17 -5 -30 0 -30 5 0 5 -13 0 -30 -5 -17 -5 -30 0 -30 5 0 5 -13 0 -30 -5
-17 -5 -30 0 -30 5 0 5 -13 0 -30 -5 -17 -5 -30 0 -30 5 0 5 -13 0 -30 -5 -17
-5 -30 0 -30 5 0 5 -13 0 -30 -5 -17 -5 -30 0 -30 5 0 5 -13 0 -30 -5 -17 -5
-30 0 -30 5 0 5 -13 0 -30 -5 -17 -5 -30 0 -30 5 0 5 -13 0 -30 -5 -17 -5 -30
0 -30 5 0 5 -13 0 -30 -5 -17 -5 -30 0 -30 5 0 5 -13 0 -29 -4 -15 -4 -34 0
-42 5 -7 4 -21 -1 -30 -6 -11 -5 -20 1 -24 5 -3 6 -15 0 -29 -4 -12 -4 -29 0
-36 5 -8 4 -22 -1 -31 -6 -11 -5 -20 1 -24 5 -3 6 -15 1 -28 -5 -12 -5 -34 0
-49 4 -16 4 -28 -1 -28 -5 0 -5 -13 0 -30 5 -17 5 -30 0 -30 -5 0 -5 -12 -1
-28 5 -15 5 -37 0 -49 -5 -13 -4 -25 1 -28 6 -4 7 -13 1 -24 -5 -9 -6 -23 -2
-29 4 -7 4 -35 1 -62 -4 -28 -3 -50 1 -50 4 0 4 -13 -1 -30 -5 -17 -5 -30 0
-30 5 0 5 -13 0 -30 -5 -17 -5 -30 0 -30 5 0 5 -13 0 -30 -5 -17 -5 -30 0 -30
5 0 5 -13 0 -30 -5 -17 -5 -30 0 -30 5 0 5 -13 0 -30 -5 -17 -5 -30 0 -30 5 0
5 -13 0 -30 -5 -17 -5 -30 0 -30 5 0 5 -13 0 -30 -5 -17 -5 -30 0 -30 5 0 5
-13 0 -30 -5 -17 -5 -30 0 -30 5 0 5 -13 0 -30 -5 -17 -5 -30 0 -30 5 0 5 -13
0 -30 -5 -17 -5 -30 0 -30 5 0 5 -13 0 -29 -4 -15 -4 -34 0 -42 5 -7 4 -21 -1
-30 -6 -11 -5 -20 1 -24 5 -3 6 -15 0 -29 -4 -12 -4 -29 0 -36 5 -8 4 -22 -1
-31 -6 -11 -5 -20 1 -24 5 -3 6 -15 1 -28 -5 -12 -5 -34 0 -49 4 -16 4 -28 -1
-28 -5 0 -5 -13 0 -30 5 -17 5 -30 0 -30 -5 0 -5 -12 -1 -28 5 -15 5 -37 0
-49 -5 -13 -4 -25 1 -28 6 -4 7 -13 1 -24 -5 -9 -6 -23 -2 -29 4 -7 4 -35 1
-62 -4 -28 -3 -50 1 -50 4 0 4 -13 -1 -30 -5 -17 -5 -30 0 -30 5 0 5 -13 0
-30 -5 -17 -5 -30 0 -30 5 0 5 -13 0 -30 -5 -17 -5 -30 0 -30 5 0 5 -13 0 -30
-5 -17 -5 -30 0 -30 5 0 5 -13 0 -30 -5 -17 -5 -30 0 -30 5 0 5 -13 0 -30 -5
-17 -5 -30 0 -30 5 0 5 -13 0 -30 -5 -17 -5 -30 0 -30 5 0 5 -13 0 -30 -5 -17
-5 -30 0 -30 5 0 5 -13 0 -30 -5 -17 -5 -30 0 -30 5 0 5 -13 0 -30 -5 -17 -5
-30 0 -30 5 0 5 -13 0 -29 -4 -15 -4 -34 0 -42 5 -7 4 -21 -1 -30 -6 -11 -5
-20 1 -24 5 -3 6 -15 0 -29 -4 -12 -4 -29 0 -36 5 -8 4 -22 -1 -31 -6 -11 -5
-20 1 -24 5 -3 6 -15 1 -28 -5 -12 -5 -34 0 -49 4 -16 4 -28 -1 -28 -5 0 -5
-13 0 -30 5 -17 5 -30 0 -30 -5 0 -5 -12 -1 -28 5 -15 5 -37 0 -49 -5 -13 -4
-25 1 -28 7 -4 7 -13 0 -24 -5 -10 -7 -21 -4 -24 9 -8 10 -97 2 -97 -4 0 -3
-11 2 -25 6 -15 6 -27 0 -30 -5 -3 -6 -15 0 -29 4 -12 5 -29 0 -36 -5 -7 -4
-24 1 -37 5 -13 5 -23 -1 -23 -5 0 -5 -12 0 -30 5 -16 5 -30 1 -30 -5 0 -5
-18 -1 -40 4 -22 4 -40 -1 -40 -5 0 -4 -11 1 -25 6 -15 6 -27 0 -30 -5 -3 -6
-15 0 -29 4 -12 5 -29 0 -36 -5 -7 -4 -24 1 -37 5 -13 5 -23 -1 -23 -5 0 -5
-12 0 -30 5 -16 6 -30 2 -30 -4 0 -7 -22 -7 -50 0 -27 4 -50 8 -50 5 0 5 -5 2
-10 -4 -6 -6 -34 -6 -63 1 -29 1 -60 1 -69 0 -10 0 -25 0 -33 0 -8 0 -22 0
-30 0 -8 0 -22 0 -30 0 -8 0 -22 0 -30 0 -8 0 -22 0 -30 0 -8 0 -22 0 -30 0
-8 0 -22 0 -30 0 -8 0 -22 0 -30 0 -8 0 -22 0 -30 0 -8 0 -22 0 -30 0 -8 0
-22 0 -30 0 -8 0 -22 0 -30 0 -8 0 -22 0 -30 0 -8 0 -22 0 -30 0 -8 0 -22 0
-30 0 -8 0 -22 0 -30 0 -8 0 -22 0 -30 0 -8 0 -22 0 -30 0 -8 0 -22 0 -30 0
-8 0 -22 0 -30 0 -8 0 -22 0 -30 0 -8 0 -22 0 -30 0 -8 0 -22 0 -30 0 -8 0
-22 0 -30 0 -8 0 -22 0 -30 0 -8 0 -22 0 -30 0 -8 0 -22 0 -30 0 -8 0 -22 0
-30 0 -8 0 -23 0 -32 0 -26 -1 -73 -3 -110 -1 -18 0 -33 3 -33 3 0 5 -22 5
-50 0 -27 -3 -50 -7 -50 -4 0 -3 -11 2 -25 6 -15 6 -27 0 -30 -5 -3 -6 -15 0
-29 4 -12 5 -29 0 -36 -5 -7 -4 -24 1 -37 5 -13 5 -23 -1 -23 -5 0 -5 -12 0
-30 5 -16 5 -30 1 -30 -5 0 -5 -18 -1 -40 4 -22 4 -40 -1 -40 -5 0 -4 -11 1
-25 6 -15 6 -27 0 -30 -5 -3 -6 -15 0 -29 4 -12 5 -29 0 -36 -5 -7 -4 -24 1
-37 5 -13 5 -23 -1 -23 -5 0 -5 -12 0 -30 5 -16 6 -30 2 -30 -8 0 -7 -89 2
-97 3 -3 1 -14 -4 -24 -7 -11 -7 -20 0 -24 5 -3 6 -15 1 -28 -5 -12 -5 -34 0
-49 4 -16 4 -28 -1 -28 -5 0 -5 -13 0 -30 5 -16 5 -30 1 -30 -5 0 -6 -11 -3
-25 l4 -25 2239 0 2239 0 0 3520 0 3520 -2241 0 -2241 0 4 -25z m1339 -1255
c21 4 41 4 44 0 3 -4 23 -4 45 0 23 4 40 3 40 -2 0 -5 5 -6 10 -3 6 4 45 6 88
5 78 0 102 0 125 1 6 0 26 0 42 0 17 -1 38 -1 48 -1 9 0 25 0 35 0 9 0 31 0
47 -1 68 -1 81 -1 105 0 14 1 32 1 40 0 8 0 26 0 40 0 14 1 32 1 40 0 14 -1
28 0 98 2 39 1 73 1 107 0 17 -1 37 -1 45 -1 8 1 24 1 35 0 11 0 27 0 35 1 8
0 26 0 40 0 14 -1 32 -1 40 -1 8 1 24 1 35 0 11 -1 34 -1 50 -1 17 1 38 1 48
1 9 0 23 0 30 1 6 0 23 0 37 0 14 -1 33 -1 43 -1 9 0 28 0 42 0 14 0 31 0 38
1 6 0 35 0 62 -1 28 0 58 0 68 0 9 0 28 0 42 0 14 0 32 0 40 0 8 0 26 0 40 0
14 0 32 0 40 0 8 0 25 0 38 -1 12 -1 29 0 37 2 15 4 21 -19 20 -76 -1 -30 -1
-44 1 -67 0 -7 0 -24 -1 -38 0 -14 0 -85 1 -158 1 -73 -1 -135 -4 -138 -3 -3
-2 -18 3 -33 4 -16 4 -34 0 -40 -4 -7 -4 -27 -1 -44 4 -18 4 -49 0 -69 -3 -21
-4 -38 0 -38 7 0 5 -249 -2 -256 -3 -3 -2 -18 3 -33 4 -16 4 -34 0 -40 -4 -7
-4 -27 -1 -44 4 -18 4 -49 0 -69 -3 -21 -4 -38 0 -38 7 0 5 -249 -2 -256 -3
-3 -2 -18 3 -33 4 -16 4 -34 0 -40 -4 -7 -4 -27 -1 -44 4 -18 4 -49 0 -69 -3
-21 -4 -38 0 -38 7 0 5 -249 -2 -256 -3 -3 -2 -18 3 -33 4 -16 4 -34 0 -40 -4
-7 -4 -27 -1 -44 4 -18 4 -49 0 -69 -3 -21 -4 -38 0 -38 7 0 5 -249 -2 -256
-3 -3 -2 -18 3 -33 4 -16 4 -34 0 -42 -5 -7 -7 -16 -4 -21 7 -11 8 -137 2
-144 -4 -3 -3 -18 2 -33 4 -16 4 -34 0 -41 -4 -6 -4 -27 0 -46 4 -19 4 -36 -1
-39 -4 -3 -6 -11 -4 -18 9 -23 11 -82 4 -115 -4 -17 -3 -34 1 -37 4 -3 4 -21
0 -40 -4 -19 -4 -37 0 -40 4 -3 4 -21 0 -40 -4 -19 -4 -37 0 -40 4 -3 4 -21 0
-40 -4 -19 -4 -37 0 -40 4 -3 4 -21 0 -40 -4 -19 -4 -37 0 -40 4 -3 4 -21 0
-40 -4 -19 -4 -37 0 -40 4 -3 4 -21 0 -40 -4 -19 -4 -37 0 -40 4 -3 4 -21 0
-40 -4 -19 -4 -37 0 -40 4 -3 4 -21 0 -40 -4 -19 -4 -37 0 -40 4 -3 4 -21 0
-40 -4 -19 -4 -37 0 -40 4 -3 4 -21 0 -40 -4 -19 -4 -37 0 -40 4 -3 4 -21 0
-40 -4 -19 -4 -37 0 -40 4 -3 4 -21 0 -40 -4 -19 -4 -37 0 -40 4 -3 4 -21 0
-40 -4 -19 -4 -37 0 -40 4 -3 4 -21 0 -40 -4 -19 -4 -37 0 -40 4 -3 4 -21 0
-40 -4 -19 -4 -37 0 -40 4 -3 4 -21 0 -40 -4 -19 -4 -37 0 -40 4 -3 4 -21 0
-40 -4 -19 -4 -37 0 -40 4 -3 4 -21 0 -40 -4 -19 -4 -37 0 -40 9 -6 1 -55 -12
-72 -6 -7 -19 -9 -38 -3 -17 5 -32 5 -35 0 -3 -4 -21 -4 -40 0 -19 4 -37 4
-40 0 -3 -4 -21 -4 -40 0 -19 4 -37 4 -40 0 -3 -5 -18 -5 -33 -1 -15 4 -36 6
-47 5 -26 -3 -66 -5 -85 -3 -8 0 -26 0 -40 0 -14 -1 -32 -1 -40 0 -8 0 -27 0
-42 0 -16 -1 -40 -1 -55 -2 -16 0 -37 -2 -48 -3 -11 -1 -35 1 -53 5 -17 4 -34
3 -37 -1 -3 -5 -18 -5 -33 -1 -15 5 -36 5 -47 1 -11 -4 -29 -4 -40 0 -11 4
-29 4 -40 0 -11 -4 -27 -4 -35 0 -8 4 -24 4 -35 0 -11 -4 -32 -4 -46 0 -15 4
-32 4 -39 0 -7 -4 -24 -4 -39 0 -14 4 -35 4 -46 0 -11 -4 -27 -4 -35 0 -8 4
-24 4 -35 0 -11 -4 -32 -4 -46 0 -15 4 -32 4 -39 0 -6 -4 -27 -4 -45 0 -18 4
-39 4 -45 0 -7 -4 -26 -4 -41 0 -16 5 -31 5 -34 0 -3 -5 -18 -5 -34 0 -15 4
-34 4 -41 0 -7 -4 -24 -5 -39 -1 -14 4 -44 4 -66 1 -22 -3 -57 -2 -77 1 -21 3
-38 4 -38 0 0 -3 -18 -6 -40 -6 -22 0 -40 2 -40 5 0 3 -22 4 -49 3 -47 -1 -49
0 -53 28 -3 16 -1 29 2 29 8 0 4 56 -5 70 -3 5 -1 11 4 15 7 3 7 15 1 30 -6
15 -6 27 0 30 6 3 6 15 0 30 -6 15 -6 27 0 30 6 3 6 15 0 30 -6 15 -6 27 0 30
6 3 6 15 0 30 -6 15 -6 27 0 30 6 3 6 15 0 30 -6 15 -6 27 0 30 6 3 6 15 0 30
-6 15 -6 27 0 30 6 3 6 15 0 30 -6 15 -6 27 0 30 6 3 6 15 0 30 -6 15 -6 27 0
30 6 3 6 15 0 30 -6 15 -6 27 0 30 6 3 6 15 0 30 -6 15 -6 27 0 30 5 3 6 15 1
28 -5 12 -5 32 0 44 5 13 4 25 -1 28 -6 3 -6 15 0 30 5 13 6 26 2 29 -9 5 -6
81 3 95 3 5 1 12 -4 15 -6 4 -6 18 -1 36 5 17 5 32 0 35 -5 3 -6 15 0 29 4 12
4 29 0 36 -5 8 -5 21 0 29 5 9 4 23 -1 33 -6 10 -5 19 1 23 5 3 6 15 1 28 -5
12 -5 32 0 44 5 13 4 25 -1 28 -5 3 -5 18 0 35 5 17 5 32 0 35 -5 3 -6 15 0
29 4 12 4 29 0 36 -5 8 -5 21 0 30 5 9 5 22 0 30 -5 8 -6 18 -3 23 7 12 7 106
0 113 -3 3 -2 17 3 30 6 14 6 26 0 29 -6 3 -6 15 0 30 6 15 6 27 0 30 -6 3 -6
15 0 30 6 15 6 27 0 30 -6 3 -6 15 0 30 6 15 6 27 0 30 -6 3 -6 15 0 30 6 15
6 27 0 30 -6 3 -6 15 0 30 6 15 6 27 0 30 -6 3 -6 15 0 30 6 15 6 27 0 30 -6
3 -6 15 0 30 6 15 6 27 0 30 -6 3 -6 15 0 30 6 15 6 27 0 30 -6 3 -6 15 0 30
6 15 6 27 0 30 -5 3 -6 15 -1 28 5 12 5 32 0 44 -5 13 -4 25 1 28 6 3 6 15 0
30 -5 14 -5 27 0 30 5 3 5 18 0 35 -5 17 -5 30 0 30 5 0 5 13 0 30 -5 19 -5
30 1 30 6 0 7 5 4 10 -8 14 -10 188 -2 196 3 4 2 15 -3 25 -7 11 -7 20 0 24 5
3 6 15 1 27 -4 11 -4 40 -1 65 4 24 3 46 -1 49 -5 2 -4 16 1 29 6 15 6 27 0
30 -6 3 -6 15 0 30 6 15 6 27 0 30 -6 3 -6 15 0 30 6 15 6 27 0 30 -6 3 -6 15
0 30 6 15 6 27 0 30 -6 3 -6 15 0 30 6 15 6 27 0 30 -6 3 -6 15 0 30 6 15 6
27 0 30 -6 3 -6 15 0 30 6 15 6 27 0 30 -6 3 -6 15 0 30 6 15 6 27 0 30 -6 3
-6 15 0 30 6 15 6 27 0 30 -6 3 -6 15 0 30 6 15 6 27 0 30 -5 3 -6 15 -1 28 5
12 5 32 0 44 -5 13 -4 25 1 28 6 3 6 15 0 30 -5 14 -5 27 0 30 5 3 5 18 0 35
-5 17 -5 30 0 30 5 0 5 13 0 30 -5 19 -5 30 1 30 6 0 7 5 4 10 -8 14 -10 188
-2 196 3 4 2 15 -3 25 -7 11 -7 20 0 24 5 3 6 15 1 27 -4 11 -4 40 -1 65 4 24
3 46 -1 49 -5 2 -4 15 1 28 5 13 6 27 3 30 -8 8 -9 76 -1 76 4 0 3 14 -2 30
-5 17 -5 30 0 30 5 0 5 13 0 29 -6 21 -5 31 3 34 7 2 13 1 15 -3 1 -4 21 -4
43 0z"/>
</g>
</svg>
